<svg version="1.1" viewBox="0.0 0.0 96.0 96.0" fill="none" stroke="none" stroke-linecap="square" stroke-miterlimit="10" xmlns:xlink="http://www.w3.org/1999/xlink" xmlns="http://www.w3.org/2000/svg"><clipPath id="p.0"><path d="m0 0l96.0 0l0 96.0l-96.0 0l0 -96.0z" clip-rule="nonzero"/></clipPath><g clip-path="url(#p.0)"><path fill="#000000" fill-opacity="0.0" d="m0 0l96.0 0l0 96.0l-96.0 0z" fill-rule="evenodd"/><path fill="#f6b26b" d="m0.8346457 48.0l0 0c0 -26.048706 21.116648 -47.165356 47.165356 -47.165356l0 0c12.509029 0 24.505722 4.9691925 33.350945 13.814413c8.845215 8.84522 13.814407 20.841911 13.814407 33.35094l0 0c0 26.048706 -21.116646 47.16535 -47.16535 47.16535l0 0c-26.048706 0 -47.165356 -21.116646 -47.165356 -47.16535z" fill-rule="evenodd"/><path fill="#ffffff" d="m41.77406 84.16562q-8.625 0.640625 -18.015627 1.28125l1.8125 -13.453125q0.3125 -3.296875 3.25 -6.859375q2.9375 -3.5781212 6.984377 -7.249996q4.0625 -3.6875 8.6875 -7.15625q4.640625 -3.46875 8.59375 -6.671875q3.953125 -3.203125 6.5625 -5.921875q2.609375 -2.71875 2.609375 -4.75q0 -3.187502 -1.234375 -4.953127q-1.21875 -1.765625 -3.03125 -1.765625q-1.8125 0 -3.15625 0.8125q-1.328125 0.796875 -2.015625 2.078125q-0.6875 1.28125 -1.015625 2.781252q-0.3125 1.484375 -0.3125 2.96875l0 1.078125q0 0.3125 0.09375 0.421875q-2.875 0.21875 -5.96875 0.53125q-2.65625 0.21875 -5.921875 0.59375q-3.25 0.359375 -6.453125 0.6875q-0.09375 -0.859375 -0.15625 -1.765625q-0.046875 -0.90625 -0.046875 -1.640625q0 -6.296877 2.453125 -11.250002q2.453125 -4.96875 6.34375 -8.328124q3.890625 -3.359375 8.84375 -5.171875q4.96875 -1.8125 9.875 -1.8125q4.046871 0 7.718746 1.28125q3.6875 1.28125 6.515625 3.890625q2.828125 2.609374 4.53125 6.609374q1.703125 4.0 1.703125 9.546875q0 5.328127 -2.78125 10.406252q-2.765625 5.0625 -7.671875 9.921875q-4.90625 4.84375 -11.624996 9.4375q-6.71875 4.578121 -14.609375 8.734371q2.890625 0 7.421875 -0.203125q4.53125 -0.21875 9.265625 -0.59375q4.749996 -0.375 10.296871 -0.796875l-1.703125 15.46875q-2.5625 0.203125 -5.812496 0.421875q-3.25 0.21875 -6.9375 0.4375q-3.671875 0.203125 -7.5625 0.46875q-3.890625 0.265625 -7.53125 0.484375z" fill-rule="nonzero"/></g></svg>