<svg version="1.1" viewBox="0.0 0.0 96.0 96.0" fill="none" stroke="none" stroke-linecap="square" stroke-miterlimit="10" xmlns:xlink="http://www.w3.org/1999/xlink" xmlns="http://www.w3.org/2000/svg"><clipPath id="p.0"><path d="m0 0l96.0 0l0 96.0l-96.0 0l0 -96.0z" clip-rule="nonzero"/></clipPath><g clip-path="url(#p.0)"><path fill="#000000" fill-opacity="0.0" d="m0 0l96.0 0l0 96.0l-96.0 0z" fill-rule="evenodd"/><path fill="#f6b26b" d="m0.8346457 48.0l0 0c0 -26.048706 21.116648 -47.165356 47.165356 -47.165356l0 0c12.509029 0 24.505722 4.9691925 33.350945 13.814413c8.845215 8.84522 13.814407 20.841911 13.814407 33.35094l0 0c0 26.048706 -21.116646 47.16535 -47.16535 47.16535l0 0c-26.048706 0 -47.165356 -21.116646 -47.165356 -47.16535z" fill-rule="evenodd"/><path fill="#ffffff" d="m79.649055 33.931248q0 5.75 -0.96875 11.828125q-0.953125 6.078125 -2.9375 11.890625q-1.96875 5.8125 -4.796875 11.046871q-2.828125 5.21875 -6.5625 9.125q-3.7187462 3.890625 -8.265621 6.1875q-4.53125 2.28125 -9.859375 2.28125q-4.90625 0 -8.375 -1.8125q-3.46875 -1.8125 -5.65625 -4.953125q-2.171877 -3.15625 -3.250002 -7.359375q-1.0625 -4.21875 -1.0625 -9.124996q0 -5.65625 1.28125 -12.046875q1.28125 -6.40625 3.671877 -12.484375q2.40625 -6.078125 5.8125 -11.625002q3.421875 -5.546875 7.421875 -9.703125q4.0 -4.156249 8.578125 -6.656249q4.59375 -2.515625 9.499996 -2.515625q3.9375 0 6.875 2.03125q2.9375 2.015625 4.859375 5.546875q1.921875 3.515624 2.828125 8.265624q0.90625 4.734375 0.90625 10.078127zm-35.73437 25.59375q0 3.9375 1.28125 6.390621q1.28125 2.453125 4.265625 2.453125q3.9375 0 7.25 -2.65625q3.3125 -2.6718712 5.65625 -6.671871q2.3437462 -4.0 3.6249962 -8.734375q1.28125 -4.75 1.28125 -9.015625q0 -4.59375 -1.765625 -7.78125q-1.7499962 -3.203127 -5.593746 -3.203127q-3.09375 0 -5.984375 2.937502q-2.875 2.921875 -5.0625 7.359375q-2.1875 4.421875 -3.578125 9.546875q-1.375 5.109375 -1.375 9.375z" fill-rule="nonzero"/></g></svg>