<svg version="1.1" viewBox="0.0 0.0 96.0 96.0" fill="none" stroke="none" stroke-linecap="square" stroke-miterlimit="10" xmlns:xlink="http://www.w3.org/1999/xlink" xmlns="http://www.w3.org/2000/svg"><clipPath id="p.0"><path d="m0 0l96.0 0l0 96.0l-96.0 0l0 -96.0z" clip-rule="nonzero"/></clipPath><g clip-path="url(#p.0)"><path fill="#000000" fill-opacity="0.0" d="m0 0l96.0 0l0 96.0l-96.0 0z" fill-rule="evenodd"/><path fill="#6aa84f" d="m0.8346457 48.0l0 0c0 -26.048706 21.116648 -47.165356 47.165356 -47.165356l0 0c12.509029 0 24.505722 4.9691925 33.350945 13.814413c8.845215 8.84522 13.814407 20.841911 13.814407 33.35094l0 0c0 26.048706 -21.116646 47.16535 -47.16535 47.16535l0 0c-26.048706 0 -47.165356 -21.116646 -47.165356 -47.16535z" fill-rule="evenodd"/><path fill="#ffffff" d="m74.836555 59.103123q0 4.906246 -2.671875 10.031246q-2.65625 5.109375 -7.1875 9.21875q-4.531246 4.09375 -10.453121 6.71875q-5.921875 2.609375 -12.203125 2.609375q-3.640625 0 -6.84375 -0.859375q-3.1875 -0.84375 -5.593752 -2.609375q-2.390625 -1.765625 -3.78125 -4.484375q-1.390625 -2.71875 -1.390625 -6.453125q0 -2.453125 0.96875 -5.4375l18.656252 -1.0625q0 2.140625 1.0625 3.09375q1.078125 0.953125 2.671875 0.953125q1.390625 0 2.984375 -0.6875q1.609375 -0.6875 3.046875 -1.859375q1.4375 -1.1875 2.34375 -2.671875q0.90625 -1.5 0.90625 -3.3124962q0 -2.5625 -2.453125 -4.6875q-2.453125 -2.140625 -8.109375 -2.140625q-4.15625 0 -8.21875 0.59375q-4.046875 0.59375 -6.812502 0.796875l1.9218769 -15.78125q3.1875 -2.03125 6.59375 -4.3125q3.421875 -2.296875 6.203125 -4.4375q3.296875 -2.343752 6.28125 -4.796877l-17.15625 0.328125l1.265625 -18.359375q9.71875 -0.421875 18.03125 -0.84375q3.515625 0 7.1875 -0.15625q3.6874962 -0.171875 6.890621 -0.328125q3.203125 -0.15625 5.8125 -0.203125q2.609375 -0.0625 4.109375 -0.0625l-2.5625 22.71875l-21.328121 11.203127q5.328125 0.953125 9.109371 2.671875q3.796875 1.703125 6.1875 4.0q2.40625 2.28125 3.46875 5.0q1.0625 2.71875 1.0625 5.609375z" fill-rule="nonzero"/></g></svg>