<svg version="1.1" viewBox="0.0 0.0 96.0 96.0" fill="none" stroke="none" stroke-linecap="square" stroke-miterlimit="10" xmlns:xlink="http://www.w3.org/1999/xlink" xmlns="http://www.w3.org/2000/svg"><clipPath id="p.0"><path d="m0 0l96.0 0l0 96.0l-96.0 0l0 -96.0z" clip-rule="nonzero"/></clipPath><g clip-path="url(#p.0)"><path fill="#000000" fill-opacity="0.0" d="m0 0l96.0 0l0 96.0l-96.0 0z" fill-rule="evenodd"/><path fill="#6aa84f" d="m0.8346457 48.0l0 0c0 -26.048706 21.116648 -47.165356 47.165356 -47.165356l0 0c12.509029 0 24.505722 4.9691925 33.350945 13.814413c8.845215 8.84522 13.814407 20.841911 13.814407 33.35094l0 0c0 26.048706 -21.116646 47.16535 -47.16535 47.16535l0 0c-26.048706 0 -47.165356 -21.116646 -47.165356 -47.16535z" fill-rule="evenodd"/><path fill="#ffffff" d="m46.89906 86.618744l2.140625 -17.078125l-18.343752 1.390625l-4.703125 -9.593746q3.515625 -10.5625 6.718752 -20.15625q1.390625 -4.0625 2.765625 -8.375q1.390625 -4.328127 2.71875 -8.375002q1.34375 -4.046875 2.515625 -7.671875q1.171875 -3.624999 2.140625 -6.296874q4.46875 0 8.46875 -0.265625q4.0 -0.265625 8.59375 -0.90625q-3.953125 9.921874 -7.3125 19.953125q-3.359375 10.015627 -6.5625 20.359377q-0.09375 0.75 -0.203125 1.28125q-0.109375 0.53125 -0.328125 1.28125l7.578125 0q0.109375 -0.75 0.421875 -2.40625q0.328125 -1.65625 0.75 -3.890625q0.421875 -2.234375 0.90625 -4.90625q0.484375 -2.671875 1.015625 -5.4375q1.0625 -6.187502 2.5625 -13.546877q3.40625 -0.53125 6.921871 -0.953125q2.890625 -0.4375 5.984375 -0.75q3.09375 -0.328125 5.328125 -0.53125q-0.109375 1.0625 -0.59375 3.625q-0.46875 2.5625 -1.0625 5.765625q-0.578125 3.187502 -1.171875 6.812502q-0.578125 3.625 -1.21875 6.828125q-0.640625 3.203125 -1.078125 5.765625q-0.421875 2.5625 -0.640625 3.625l6.078125 0l-4.359375 17.062496l-5.453125 0l-0.953125 13.96875l-19.624996 3.421875z" fill-rule="nonzero"/></g></svg>