<svg version="1.1" viewBox="0.0 0.0 96.0 96.0" fill="none" stroke="none" stroke-linecap="square" stroke-miterlimit="10" xmlns:xlink="http://www.w3.org/1999/xlink" xmlns="http://www.w3.org/2000/svg"><clipPath id="p.0"><path d="m0 0l96.0 0l0 96.0l-96.0 0l0 -96.0z" clip-rule="nonzero"/></clipPath><g clip-path="url(#p.0)"><path fill="#000000" fill-opacity="0.0" d="m0 0l96.0 0l0 96.0l-96.0 0z" fill-rule="evenodd"/><path fill="#6aa84f" d="m0.8346457 48.0l0 0c0 -26.048706 21.116648 -47.165356 47.165356 -47.165356l0 0c12.509029 0 24.505722 4.9691925 33.350945 13.814413c8.845215 8.84522 13.814407 20.841911 13.814407 33.35094l0 0c0 26.048706 -21.116646 47.16535 -47.16535 47.16535l0 0c-26.048706 0 -47.165356 -21.116646 -47.165356 -47.16535z" fill-rule="evenodd"/><path fill="#ffffff" d="m76.26795 52.806248q0 3.734375 -1.28125 7.6875q-1.28125 3.9374962 -3.46875 7.718746q-2.1875 3.78125 -5.171875 7.203125q-2.9843712 3.40625 -6.343746 5.96875q-3.359375 2.5625 -6.984375 4.0625q-3.625 1.484375 -7.046879 1.484375q-4.046875 0 -7.3125 -1.375q-3.25 -1.390625 -5.4375 -3.890625q-2.171875 -2.515625 -3.359375 -6.03125q-1.171875 -3.53125 -1.171875 -7.6875q0 -2.03125 0.15625 -4.265621q0.171875 -2.234375 0.375 -4.6875l16.4375 1.28125q-0.53125 1.59375 -0.53125 2.546875q0 2.1406212 1.265625 3.1093712q1.2812538 0.953125 3.0000038 0.953125q1.375 0 2.8125 -0.578125q1.453125 -0.59375 2.671875 -1.875q1.234375 -1.2812462 1.96875 -3.2031212q0.75 -1.921875 0.75 -4.484375q0 -1.28125 -0.375 -2.5q-0.375 -1.234375 -1.609375 -2.078125q-1.21875 -0.859375 -3.453125 -1.4375q-2.234375 -0.59375 -5.859379 -0.59375q-0.96875 0 -1.984375 0.0625q-1.0 0.046875 -2.71875 0.265625q-1.703125 0.203125 -4.109375 0.578125q-2.390625 0.375 -6.125 1.015625q1.171875 -8.0 2.875 -18.390625q1.71875 -10.406252 4.171875 -23.53125l40.625 -1.484375l-2.125 17.375q-5.984375 0.21875 -12.125 0.4375q-6.124996 0.203125 -12.515621 0.53125q-0.21875 1.484375 -0.484375 3.84375q-0.265625 2.343752 -0.578125 5.109377q6.8125 0 11.609375 1.28125q4.812496 1.28125 7.796871 3.53125q2.984375 2.234375 4.3125 5.28125q1.34375 3.03125 1.34375 6.765625z" fill-rule="nonzero"/></g></svg>