<svg version="1.1" viewBox="0.0 0.0 96.0 96.0" fill="none" stroke="none" stroke-linecap="square" stroke-miterlimit="10" xmlns:xlink="http://www.w3.org/1999/xlink" xmlns="http://www.w3.org/2000/svg"><clipPath id="p.0"><path d="m0 0l96.0 0l0 96.0l-96.0 0l0 -96.0z" clip-rule="nonzero"/></clipPath><g clip-path="url(#p.0)"><path fill="#000000" fill-opacity="0.0" d="m0 0l96.0 0l0 96.0l-96.0 0z" fill-rule="evenodd"/><path fill="#6aa84f" d="m0.8346457 48.0l0 0c0 -26.048706 21.116648 -47.165356 47.165356 -47.165356l0 0c12.509029 0 24.505722 4.9691925 33.350945 13.814413c8.845215 8.84522 13.814407 20.841911 13.814407 33.35094l0 0c0 26.048706 -21.116646 47.16535 -47.16535 47.16535l0 0c-26.048706 0 -47.165356 -21.116646 -47.165356 -47.16535z" fill-rule="evenodd"/><path fill="#ffffff" d="m47.684994 84.587494q-3.4218788 0.75 -7.046879 1.390625q2.140625 -9.609375 4.15625 -19.203125q0.859375 -4.046871 1.765625 -8.578121q0.9062538 -4.546875 1.8125038 -9.078125q0.90625 -4.53125 1.75 -9.0q0.859375 -4.484375 1.5 -8.437502q-2.5625 0.21875 -5.015629 0.6406269q-2.015625 0.328125 -4.203125 0.703125q-2.1875 0.359375 -3.6875 0.578125q0.21875 -1.484375 0.640625 -4.531252q0.4375 -3.046875 0.96875 -6.234375q0.421875 -3.625 1.0625 -7.890624q2.453125 -0.546875 6.828129 -1.390625q3.734375 -0.640625 9.921875 -1.59375q6.187496 -0.96875 15.359371 -2.46875q-2.25 9.390624 -4.125 18.25q-1.859375 8.843752 -3.515625 17.703127q-1.640625 8.84375 -3.1874962 17.859375q-1.546875 9.015621 -3.046875 18.499996q-2.453125 0.75 -5.65625 1.5q-3.1875 0.75 -6.28125 1.28125z" fill-rule="nonzero"/></g></svg>