<svg version="1.1" viewBox="0.0 0.0 144.0 144.0" fill="none" stroke="none" stroke-linecap="square" stroke-miterlimit="10" xmlns:xlink="http://www.w3.org/1999/xlink" xmlns="http://www.w3.org/2000/svg"><clipPath id="p.0"><path d="m0 0l144.0 0l0 144.0l-144.0 0l0 -144.0z" clip-rule="nonzero"/></clipPath><g clip-path="url(#p.0)"><path fill="#000000" fill-opacity="0.0" d="m0 0l144.0 0l0 144.0l-144.0 0z" fill-rule="evenodd"/><path fill="#f3f3f3" d="m5.6877284 42.572628l0 0c0 -16.25229 13.175083 -29.427376 29.427372 -29.427376l0 0c7.8046265 0 15.289593 3.1003752 20.808296 8.619079c5.5187035 5.5187035 8.619076 13.00367 8.619076 20.808296l0 0c0 16.252289 -13.175083 29.427372 -29.427372 29.427372l0 0c-16.252289 0 -29.427372 -13.175083 -29.427372 -29.427372z" fill-rule="evenodd"/><path fill="#f3f3f3" d="m79.45753 42.572628l0 0c0 -16.25229 13.175079 -29.427376 29.427368 -29.427376l0 0c7.8046265 0 15.289597 3.1003752 20.808296 8.619079c5.5187073 5.5187035 8.61908 13.00367 8.61908 20.808296l0 0c0 16.252289 -13.175087 29.427372 -29.427376 29.427372l0 0c-16.252289 0 -29.427368 -13.175083 -29.427368 -29.427372z" fill-rule="evenodd"/><path fill="#f3f3f3" d="m42.572628 101.427376l0 0c0 -16.252289 13.175083 -29.427376 29.427372 -29.427376l0 0c7.8046265 0 15.289589 3.1003723 20.808296 8.61908c5.5186996 5.5186996 8.61908 13.00367 8.61908 20.808296l0 0c0 16.252289 -13.175087 29.427376 -29.427376 29.427376l0 0c-16.252289 0 -29.427372 -13.175087 -29.427372 -29.427376z" fill-rule="evenodd"/></g></svg>