<svg version="1.1" viewBox="0.0 0.0 811.8871391076116 184.3517060367454" fill="none" stroke="none" stroke-linecap="square" stroke-miterlimit="10" xmlns:xlink="http://www.w3.org/1999/xlink" xmlns="http://www.w3.org/2000/svg"><clipPath id="p.0"><path d="m0 0l811.88715 0l0 184.3517l-811.88715 0l0 -184.3517z" clip-rule="nonzero"/></clipPath><g clip-path="url(#p.0)"><path fill="#000000" fill-opacity="0.0" d="m0 0l811.88715 0l0 184.3517l-811.88715 0z" fill-rule="evenodd"/><path fill="#000000" fill-opacity="0.0" d="m5.7860894 15.897654l800.315 0l0 149.70078l-800.315 0z" fill-rule="evenodd"/><path fill="#000000" d="m70.38106 137.56555q-10.874996 0 -16.593746 -8.9375q-5.71875 -8.937508 -5.71875 -27.250008l0 -16.25q0 -8.1875 1.1875 -14.03125q1.1875 -5.84375 3.15625 -9.8125q1.96875 -3.96875 4.5 -6.28125q2.53125 -2.3125 5.21875 -3.53125q2.6874962 -1.21875 5.312496 -1.5625q2.625 -0.34375 4.8125 -0.34375q4.375 0 8.0 1.15625q3.625 1.15625 6.25 3.5q2.625 2.34375 4.0625 5.90625q1.4375 3.5625 1.4375 8.375q0 3.0 -0.28125 5.15625q-0.28125 2.15625 -0.78125 4.15625l-12.625 0l0 -2.875q0 -6.5 -1.53125 -10.15625q-1.53125 -3.65625 -5.03125 -3.65625q-1.9375 0 -3.375 0.90625q-1.4375 0.90625 -2.40625 3.09375q-0.96875 2.1875 -1.4375 5.875q-0.46875 3.6875 -0.46875 9.25l0 24.4375q0 5.625 0.375 9.5625q0.375 3.9375 1.3125 6.40625q0.9375 2.46875 2.5 3.59375q1.5625 1.125 3.875 1.125q1.1875 0 2.3125 -0.59375q1.125 -0.59375 1.96875 -1.96875q0.84375 -1.375 1.375 -3.65625q0.53125 -2.28125 0.53125 -5.65625l0 -2.6875l13.625 0l0 3.3125q0 12.25 -5.40625 17.843758q-5.40625 5.59375 -16.15625 5.59375zm56.0625 0q-2.75 0 -5.59375 -0.4375q-2.84375 -0.4375 -5.5 -1.8125q-2.65625 -1.375 -5.0 -3.9375q-2.34375 -2.5625 -4.09375 -6.7500076q-1.75 -4.1875 -2.75 -10.3125q-1.0 -6.125 -1.0 -14.625l0 -13.5q0 -8.375 1.03125 -14.34375q1.03125 -5.96875 2.8125 -10.03125q1.78125 -4.0625 4.15625 -6.46875q2.375 -2.40625 5.03125 -3.6875q2.65625 -1.28125 5.46875 -1.6875q2.8125 -0.40625 5.5 -0.40625q2.5625 0 5.3125 0.375q2.75 0.375 5.375 1.59375q2.625 1.21875 4.96875 3.625q2.34375 2.40625 4.125 6.46875q1.78125 4.0625 2.8125 10.09375q1.03125 6.03125 1.03125 14.46875l0 13.5q0 8.375 -1.0625 14.4375q-1.0625 6.0625 -2.875 10.25q-1.8125 4.1875076 -4.1875 6.7812576q-2.375 2.59375 -5.0 4.03125q-2.625 1.4375 -5.34375 1.90625q-2.71875 0.46875 -5.21875 0.46875zm0.125 -12.187508q2.125 0 3.59375 -1.09375q1.46875 -1.09375 2.375 -3.59375q0.90625 -2.5 1.3125 -6.59375q0.40625 -4.09375 0.40625 -10.15625l0 -21.1875q0 -6.0625 -0.40625 -10.1875q-0.40625 -4.125 -1.3125 -6.65625q-0.90625 -2.53125 -2.375 -3.65625q-1.46875 -1.125 -3.59375 -1.125q-2.25 0 -3.78125 1.125q-1.53125 1.125 -2.53125 3.65625q-1.0 2.53125 -1.4375 6.65625q-0.4375 4.125 -0.4375 10.1875l0 21.1875q0 6.0625 0.4375 10.15625q0.4375 4.09375 1.4375 6.59375q1.0 2.5 2.53125 3.59375q1.53125 1.09375 3.78125 1.09375zm37.5625 -74.8125l12.1875 0l1.4375 9.1875l0 0.0625q1.875 -2.9375 4.03125 -4.90625q2.15625 -1.96875 4.46875 -3.15625q2.3125 -1.1875 4.71875 -1.6875q2.40625 -0.5 4.78125 -0.5q7.5625 0 11.65625 5.28125q4.09375 5.28125 4.09375 15.84375l0 65.93751l-15.8125 0l0 -65.37501q0 -5.6875 -1.75 -7.90625q-1.75 -2.21875 -5.125 -2.21875q-2.375 0 -4.71875 1.5625q-2.34375 1.5625 -4.15625 4.3125l0 69.62501l-15.8125 0l0 -86.06251zm60.375 68.0625q0 -2.8125 0.53125 -5.4375q0.53125 -2.625 1.03125 -4.1875l11.125 0q0 4.6875 0.46875 7.84375q0.46875 3.15625 1.53125 5.03125q1.0625 1.875 2.84375 2.6875q1.78125 0.8125 4.34375 0.8125q3.5625 0 5.1875 -2.0q1.625 -2.0 1.625 -4.625q0 -1.375 -0.375 -2.625q-0.375 -1.25 -1.0625 -2.53125q-0.6875 -1.28125 -1.6875 -2.59375q-1.0 -1.3125 -2.25 -2.875l-11.5625 -13.625q-2.25 -2.8125 -4.34375 -5.71875q-2.09375 -2.90625 -3.6875 -6.0q-1.59375 -3.09375 -2.5625 -6.46875q-0.96875 -3.375 -0.96875 -7.125q0 -5.0 1.71875 -8.6875q1.71875 -3.6875 4.625 -6.125q2.90625 -2.4375 6.71875 -3.625q3.8125 -1.1875 8.0625 -1.1875q4.6875 0 8.4375 1.125q3.7500153 1.125 6.4375153 3.375q2.6875 2.25 4.125 5.59375q1.4375 3.34375 1.4375 7.78125q0 3.0 -0.53125 5.8125q-0.53125 2.8125 -1.03125 4.8125l-10.937515 0q-0.0625 -4.25 -0.375 -7.4375q-0.3125 -3.1875 -1.15625 -5.28125q-0.84375 -2.09375 -2.3125 -3.15625q-1.46875 -1.0625 -3.84375 -1.0625q-2.0625 0 -3.4375 0.65625q-1.375 0.65625 -2.21875 1.71875q-0.84375 1.0625 -1.1875 2.375q-0.34375 1.3125 -0.34375 2.6875q0 3.0 1.4375 5.5625q1.4375 2.5625 3.8125 5.5625l12.625015 14.8125q1.375 1.6875 3.1875 4.09375q1.8125 2.40625 3.4375 5.3125q1.625 2.90625 2.75 6.34375q1.125 3.4375 1.125 7.1875q0 4.5625 -1.4375 8.28125q-1.4375 3.7187576 -4.25 6.3437576q-2.8125 2.625 -6.9062653 4.0625q-4.09375 1.4375 -9.34375 1.4375q-4.3125 0 -8.125 -0.96875q-3.8125 -0.96875 -6.625 -3.1875q-2.8125 -2.21875 -4.4375 -5.8437576q-1.625 -3.625 -1.625 -8.9375zm63.625015 -80.375q-4.375 0 -6.90625 -2.625q-2.53125 -2.625 -2.53125 -7.687498q0 -2.8125 0.65625 -4.71875q0.65625 -1.90625 1.875 -3.0625q1.21875 -1.15625 2.96875 -1.6875q1.75 -0.53125 4.0 -0.53125q4.6875 0 7.125 2.375q2.4375 2.375 2.4375 7.625q0 4.874998 -2.46875 7.593748q-2.46875 2.71875 -7.15625 2.71875zm-8.1875 12.3125l15.8125 0l0 86.06251l-15.8125 0l0 -86.06251zm28.9375 68.0625q0 -2.8125 0.53125 -5.4375q0.53125 -2.625 1.03125 -4.1875l11.125 0q0 4.6875 0.46875 7.84375q0.46875 3.15625 1.53125 5.03125q1.0625 1.875 2.84375 2.6875q1.78125 0.8125 4.34375 0.8125q3.5625 0 5.1875 -2.0q1.625 -2.0 1.625 -4.625q0 -1.375 -0.375 -2.625q-0.375 -1.25 -1.0625 -2.53125q-0.6875 -1.28125 -1.6875 -2.59375q-1.0 -1.3125 -2.25 -2.875l-11.5625 -13.625q-2.25 -2.8125 -4.34375 -5.71875q-2.09375 -2.90625 -3.6875 -6.0q-1.59375 -3.09375 -2.5625 -6.46875q-0.96875 -3.375 -0.96875 -7.125q0 -5.0 1.71875 -8.6875q1.71875 -3.6875 4.625 -6.125q2.90625 -2.4375 6.71875 -3.625q3.8125 -1.1875 8.0625 -1.1875q4.6875 0 8.4375 1.125q3.75 1.125 6.4375 3.375q2.6875 2.25 4.125 5.59375q1.4375 3.34375 1.4375 7.78125q0 3.0 -0.53125 5.8125q-0.53125 2.8125 -1.03125 4.8125l-10.9375 0q-0.0625 -4.25 -0.375 -7.4375q-0.3125 -3.1875 -1.15625 -5.28125q-0.84375 -2.09375 -2.3125 -3.15625q-1.46875 -1.0625 -3.84375 -1.0625q-2.0625 0 -3.4375 0.65625q-1.375 0.65625 -2.21875 1.71875q-0.84375 1.0625 -1.1875 2.375q-0.34375 1.3125 -0.34375 2.6875q0 3.0 1.4375 5.5625q1.4375 2.5625 3.8125 5.5625l12.625 14.8125q1.375 1.6875 3.1875 4.09375q1.8125 2.40625 3.4375 5.3125q1.625 2.90625 2.75 6.34375q1.125 3.4375 1.125 7.1875q0 4.5625 -1.4375 8.28125q-1.4375 3.7187576 -4.25 6.3437576q-2.8125 2.625 -6.90625 4.0625q-4.09375 1.4375 -9.34375 1.4375q-4.3125 0 -8.125 -0.96875q-3.8125 -0.96875 -6.625 -3.1875q-2.8125 -2.21875 -4.4375 -5.8437576q-1.625 -3.625 -1.625 -8.9375zm57.0 -56.8125l-6.6875 0l0 -11.25l8.0625 0l3.1875 -22.312498l11.25 0l0 22.312498l13.75 0l0 11.25l-13.75 0l0 54.75q0 2.8125 0.53125 4.53125q0.53125 1.71875 1.46875 2.6875q0.9375 0.96875 2.1875 1.28125q1.25 0.3125 2.625 0.3125q2.3125 0 4.09375 -0.5625q1.78125 -0.5625 3.40625 -1.5625l0 8.750008q-1.375 1.6875 -2.96875 2.75q-1.59375 1.0625 -3.28125 1.71875q-1.6875 0.65625 -3.4375 0.90625q-1.75 0.25 -3.4375 0.25q-3.3125 0 -6.375 -0.875q-3.0625 -0.875 -5.4375 -3.34375q-2.375 -2.46875 -3.78125 -6.8437576q-1.40625 -4.375 -1.40625 -11.375l0 -53.375zm61.125 75.75001q-5.5625 0 -9.84375 -2.0625q-4.28125 -2.0625 -7.21875 -6.4375q-2.9375 -4.3750076 -4.4375 -11.218758q-1.5 -6.84375 -1.5 -16.46875l0 -16.25q0 -8.1875 1.21875 -14.03125q1.21875 -5.84375 3.1875 -9.8125q1.96875 -3.96875 4.5625 -6.28125q2.59375 -2.3125 5.34375 -3.53125q2.75 -1.21875 5.46875 -1.5625q2.71875 -0.34375 5.03125 -0.34375q4.25 0 8.1875 1.28125q3.9375 1.28125 6.9375 4.375q3.0 3.09375 4.78125 8.28125q1.78125 5.1875 1.78125 12.9375q0 2.625 -0.15625 5.3125q-0.15625 2.6875 -0.40625 5.28125q-0.25 2.59375 -0.65625 5.03125q-0.40625 2.4375 -0.84375 4.5l-28.5625 0l0 8.75q0 5.625 0.4375 9.46875q0.4375 3.84375 1.46875 6.1875q1.03125 2.34375 2.8125 3.375q1.78125 1.03125 4.46875 1.03125q1.4375 0 2.8125 -0.59375q1.375 -0.59375 2.40625 -1.96875q1.03125 -1.375 1.65625 -3.65625q0.625 -2.28125 0.625 -5.65625l0 -2.6875l13.1875 0l0 3.3125q0 12.25 -5.84375 17.843758q-5.84375 5.59375 -16.90625 5.59375zm8.75 -51.625008q0.0625 -0.6875 0.125 -1.84375q0.0625 -1.15625 0.09375 -2.40625q0.03125 -1.25 0.03125 -2.46875q0 -1.21875 0 -2.09375q0 -8.5 -2.0 -12.25q-2.0 -3.75 -5.9375 -3.75q-2.0625 0 -3.625 0.96875q-1.5625 0.96875 -2.5625 3.25q-1.0 2.28125 -1.5 6.03125q-0.5 3.75 -0.5 9.3125l0 5.25l15.875 0zm28.125 -35.375l12.1875 0l1.4375 9.1875l0 0.0625q1.875 -2.9375 4.03125 -4.90625q2.15625 -1.96875 4.46875 -3.15625q2.3125 -1.1875 4.71875 -1.6875q2.40625 -0.5 4.78125 -0.5q7.5625 0 11.65625 5.28125q4.09375 5.28125 4.09375 15.84375l0 65.93751l-15.8125 0l0 -65.37501q0 -5.6875 -1.75 -7.90625q-1.75 -2.21875 -5.125 -2.21875q-2.375 0 -4.71875 1.5625q-2.34375 1.5625 -4.15625 4.3125l0 69.62501l-15.8125 0l0 -86.06251zm65.56247 11.25l-6.6875 0l0 -11.25l8.0625 0l3.1875 -22.312498l11.25 0l0 22.312498l13.75 0l0 11.25l-13.75 0l0 54.75q0 2.8125 0.53125 4.53125q0.53125 1.71875 1.46875 2.6875q0.9375 0.96875 2.1875 1.28125q1.25 0.3125 2.625 0.3125q2.3125 0 4.09375 -0.5625q1.78125 -0.5625 3.40625 -1.5625l0 8.750008q-1.375 1.6875 -2.96875 2.75q-1.59375 1.0625 -3.28125 1.71875q-1.6875 0.65625 -3.4375 0.90625q-1.75 0.25 -3.4375 0.25q-3.3125 0 -6.375 -0.875q-3.0625 -0.875 -5.4375 -3.34375q-2.375 -2.46875 -3.78125 -6.8437576q-1.40625 -4.375 -1.40625 -11.375l0 -53.375zm40.625 -38.875l15.8125 0l0 113.68751l-15.8125 0l0 -113.68751zm29.0625 130.25q3.5625 0.5 6.5625 -0.21875q3.0 -0.71875 5.15625 -2.71875q2.15625 -2.0 3.4375 -5.28125q1.28125 -3.28125 1.46875 -7.84375l-20.375 -86.56251l16.0625 0l9.0625 47.625l2.625 16.4375l0.5 0l1.8125 -16.4375l7.3125 -47.625l15.5625 0l-18.125 89.25001q-1.1875 6.1875 -3.03125 10.8125q-1.84375 4.625 -4.5625 7.6875q-2.71875 3.0625 -6.46875 4.59375q-3.75 1.53125 -8.75 1.53125q-4.0625 0 -8.3125 -1.5625l0.0625 -9.6875l0 0z" fill-rule="nonzero"/><path fill="#000000" d="m694.31854 38.253044q-4.375 0 -6.90625 -2.625q-2.53125 -2.625 -2.53125 -7.687498q0 -2.8125 0.65625 -4.71875q0.65625 -1.90625 1.875 -3.0625q1.21875 -1.15625 2.96875 -1.6875q1.75 -0.53125 4.0 -0.53125q4.6875 0 7.125 2.375q2.4375 2.375 2.4375 7.625q0 4.874998 -2.46875 7.593748q-2.46875 2.71875 -7.15625 2.71875zm-8.1875 12.3125l15.8125 0l0 86.06251l-15.8125 0l0 -86.06251zm54.0 87.00001q-2.75 0 -5.59375 -0.4375q-2.84375 -0.4375 -5.5 -1.8125q-2.65625 -1.375 -5.0 -3.9375q-2.34375 -2.5625 -4.09375 -6.7500076q-1.75 -4.1875 -2.75 -10.3125q-1.0 -6.125 -1.0 -14.625l0 -13.5q0 -8.375 1.03125 -14.34375q1.03125 -5.96875 2.8125 -10.03125q1.78125 -4.0625 4.15625 -6.46875q2.375 -2.40625 5.03125 -3.6875q2.65625 -1.28125 5.46875 -1.6875q2.8125 -0.40625 5.5 -0.40625q2.5625 0 5.3125 0.375q2.75 0.375 5.375 1.59375q2.625 1.21875 4.96875 3.625q2.34375 2.40625 4.125 6.46875q1.78125 4.0625 2.8125 10.09375q1.03125 6.03125 1.03125 14.46875l0 13.5q0 8.375 -1.0625 14.4375q-1.0625 6.0625 -2.875 10.25q-1.8125 4.1875076 -4.1875 6.7812576q-2.375 2.59375 -5.0 4.03125q-2.625 1.4375 -5.34375 1.90625q-2.71875 0.46875 -5.21875 0.46875zm0.125 -12.187508q2.125 0 3.59375 -1.09375q1.46875 -1.09375 2.375 -3.59375q0.90625 -2.5 1.3125 -6.59375q0.40625 -4.09375 0.40625 -10.15625l0 -21.1875q0 -6.0625 -0.40625 -10.1875q-0.40625 -4.125 -1.3125 -6.65625q-0.90625 -2.53125 -2.375 -3.65625q-1.46875 -1.125 -3.59375 -1.125q-2.25 0 -3.78125 1.125q-1.53125 1.125 -2.53125 3.65625q-1.0 2.53125 -1.4375 6.65625q-0.4375 4.125 -0.4375 10.1875l0 21.1875q0 6.0625 0.4375 10.15625q0.4375 4.09375 1.4375 6.59375q1.0 2.5 2.53125 3.59375q1.53125 1.09375 3.78125 1.09375z" fill-rule="nonzero"/><path fill="#e69138" d="m275.38715 28.653528l0 0c0 -7.0448933 5.7109985 -12.755906 12.75589 -12.755906l0 0c3.3830872 0 6.627594 1.3439226 9.019806 3.7361174c2.3921814 2.3921967 3.7361145 5.636711 3.7361145 9.019789l0 0c0 7.0448933 -5.711029 12.755903 -12.75592 12.755903l0 0c-7.0448914 0 -12.75589 -5.71101 -12.75589 -12.755903z" fill-rule="evenodd"/><path fill="#6aa84f" d="m681.8928 28.653528l0 0c0 -7.0448933 5.7110596 -12.755906 12.75592 -12.755906l0 0c3.3831177 0 6.6276245 1.3439226 9.019775 3.7361174c2.392212 2.3921967 3.736145 5.636711 3.736145 9.019789l0 0c0 7.0448933 -5.7109985 12.755903 -12.75592 12.755903l0 0c-7.044861 0 -12.75592 -5.71101 -12.75592 -12.755903z" fill-rule="evenodd"/><path fill="#000000" fill-opacity="0.0" d="m86.78084 126.78479l512.2835 0l0 57.669296l-512.2835 0z" fill-rule="evenodd"/><path fill="#999999" d="m339.51746 164.61417q2.578125 0 3.828125 -1.65625q1.265625 -1.65625 1.265625 -4.734375q0 -3.46875 -1.21875 -5.21875q-1.203125 -1.765625 -3.90625 -1.765625q-1.203125 0 -2.125 0.515625q-0.921875 0.515625 -1.484375 1.4375q-0.5625 0.921875 -0.859375 2.125q-0.28125 1.1875 -0.28125 2.609375q0 2.0 0.484375 3.46875q0.5 1.46875 1.59375 2.34375q1.09375 0.875 2.703125 0.875zm5.140625 -0.59375q-0.84375 1.296875 -2.25 2.0625q-1.40625 0.765625 -3.140625 0.765625q-3.390625 0 -5.3125 -2.40625q-1.921875 -2.421875 -1.921875 -6.578125q0 -3.96875 1.953125 -6.40625q1.953125 -2.453125 5.234375 -2.453125q1.703125 0 3.203125 0.75q1.515625 0.734375 2.265625 1.984375l-0.046875 -1.484375l0 -7.546875l2.578125 -0.15625l0 23.953125l-2.21875 0l-0.34375 -2.484375zm16.96875 -11.484375q-1.140625 -1.375 -3.140625 -1.375q-2.0 0 -3.265625 1.421875q-1.265625 1.40625 -1.484375 3.859375l9.046875 0q0 -2.546875 -1.15625 -3.90625zm-2.625 14.328125q-3.734375 0 -5.890625 -2.375q-2.140625 -2.375 -2.140625 -6.5q0 -3.984375 2.078125 -6.453125q2.078125 -2.484375 5.46875 -2.53125q3.1875 0 5.046875 2.1875q1.875 2.171875 1.875 5.8125q0 0.1875 -0.015625 0.6875q0 0.5 0 0.71875l-11.765625 0q0.046875 2.921875 1.5 4.5625q1.46875 1.625 3.9375 1.625q2.71875 0 5.453125 -1.4375l0.40625 2.109375q-2.609375 1.59375 -5.953125 1.59375zm10.0625 7.078125l0 -24.578125l2.296875 0l0.25 2.328125q2.25 -2.6875 5.40625 -2.6875q2.34375 0 3.96875 1.171875q1.625 1.171875 2.390625 3.171875q0.78125 2.0 0.78125 4.671875q0 2.5625 -0.84375 4.5625q-0.84375 1.984375 -2.484375 3.140625q-1.625 1.140625 -3.8125 1.140625q-1.65625 0 -3.109375 -0.734375q-1.453125 -0.75 -2.328125 -1.96875q0.09375 1.6875 0.09375 3.28125l0 6.328125l-2.609375 0.171875zm7.59375 -9.28125q1.1875 0 2.125 -0.53125q0.9375 -0.546875 1.515625 -1.484375q0.578125 -0.9375 0.875 -2.125q0.296875 -1.203125 0.296875 -2.59375q0 -2.9375 -1.234375 -4.8125q-1.234375 -1.890625 -3.609375 -1.890625q-4.96875 0 -4.96875 6.421875q0 3.484375 1.15625 5.25q1.171875 1.765625 3.84375 1.765625zm15.78125 2.15625q-2.5 0 -3.546875 -1.34375q-1.03125 -1.34375 -1.03125 -4.671875l0 -18.09375l2.59375 -0.15625l0 17.21875q0 1.0625 0.015625 1.703125q0.03125 0.640625 0.125 1.265625q0.09375 0.609375 0.25 0.921875q0.15625 0.3125 0.453125 0.578125q0.296875 0.25 0.703125 0.34375q0.421875 0.078125 1.03125 0.078125q0.5 0 1.96875 -0.1875l0.140625 2.078125q-1.609375 0.265625 -2.703125 0.265625zm6.1875 -8.84375q0 3.046875 1.34375 4.890625q1.359375 1.828125 3.953125 1.828125q2.5625 0 3.859375 -1.828125q1.3125 -1.828125 1.3125 -4.921875q0 -3.140625 -1.296875 -4.9375q-1.28125 -1.8125 -3.921875 -1.8125q-2.5625 0 -3.90625 1.84375q-1.34375 1.84375 -1.34375 4.9375zm13.171875 -0.046875q0 3.984375 -2.125 6.46875q-2.125 2.46875 -5.875 2.46875q-3.609375 0 -5.75 -2.5q-2.125 -2.5 -2.125 -6.421875q0 -4.0 2.140625 -6.46875q2.140625 -2.46875 5.875 -2.46875q3.671875 0 5.765625 2.484375q2.09375 2.46875 2.09375 6.4375zm1.5 -8.5625l2.765625 0l5.40625 14.265625l4.8125 -14.265625l2.765625 0q-6.9375 19.09375 -7.171875 19.6875q-1.078125 2.703125 -2.609375 3.953125q-1.53125 1.265625 -4.03125 1.265625q-0.75 0 -1.578125 -0.125l-0.15625 -2.21875q0.875 0.0625 1.3125 0.0625q1.765625 0 2.671875 -0.65625q0.921875 -0.640625 1.640625 -2.421875q0.640625 -1.640625 0.953125 -2.53125l-6.78125 -17.015625zm39.921875 17.140625l0 -8.921875q0 -1.25 -0.0625 -2.09375q-0.046875 -0.84375 -0.25 -1.71875q-0.1875 -0.875 -0.546875 -1.375q-0.34375 -0.515625 -0.96875 -0.828125q-0.625 -0.328125 -1.5 -0.328125q-1.71875 0 -2.9375 0.921875q-1.203125 0.921875 -1.71875 2.59375q-0.140625 1.125 -0.140625 2.40625l0 9.34375l-2.609375 0l0 -9.203125q0 -1.15625 -0.078125 -2.0q-0.078125 -0.859375 -0.296875 -1.65625q-0.21875 -0.8125 -0.59375 -1.3125q-0.359375 -0.5 -0.96875 -0.796875q-0.609375 -0.296875 -1.453125 -0.296875q-1.875 0 -3.15625 0.953125q-1.265625 0.953125 -1.703125 2.53125q-0.140625 1.203125 -0.140625 2.609375l0 9.171875l-2.609375 0q-0.03125 -16.078125 -0.03125 -17.140625l2.1875 0l0.328125 2.453125q0.78125 -1.1875 2.21875 -2.0q1.4375 -0.8125 3.265625 -0.8125q0.953125 0 1.75 0.203125q0.8125 0.1875 1.34375 0.484375q0.546875 0.296875 0.96875 0.71875q0.421875 0.40625 0.65625 0.8125q0.234375 0.390625 0.390625 0.828125q1.875 -3.046875 5.734375 -3.046875q2.859375 0 4.1875 1.640625q1.34375 1.625 1.34375 4.828125l0 11.03125l-2.609375 0zm15.8125 -13.96875q-1.140625 -1.375 -3.140625 -1.375q-2.0 0 -3.265625 1.421875q-1.265625 1.40625 -1.484375 3.859375l9.046875 0q0 -2.546875 -1.15625 -3.90625zm-2.625 14.328125q-3.734375 0 -5.890625 -2.375q-2.140625 -2.375 -2.140625 -6.5q0 -3.984375 2.078125 -6.453125q2.078125 -2.484375 5.46875 -2.53125q3.1875 0 5.046875 2.1875q1.875 2.171875 1.875 5.8125q0 0.1875 -0.015625 0.6875q0 0.5 0 0.71875l-11.765625 0q0.046875 2.921875 1.5 4.5625q1.46875 1.625 3.9375 1.625q2.71875 0 5.453125 -1.4375l0.40625 2.109375q-2.609375 1.59375 -5.953125 1.59375zm10.0625 -0.359375l0 -17.140625l2.1875 0l0.328125 2.453125q1.015625 -1.265625 2.53125 -2.03125q1.53125 -0.78125 3.296875 -0.78125q2.96875 0 4.390625 1.671875q1.421875 1.65625 1.421875 5.109375l0 10.71875l-2.609375 0q0 -10.3125 -0.015625 -11.046875q-0.0625 -2.1875 -0.890625 -3.203125q-0.8125 -1.015625 -2.734375 -1.015625q-2.015625 0 -3.359375 0.96875q-1.34375 0.96875 -1.75 2.515625q-0.15625 1.046875 -0.15625 2.40625l0 9.375l-2.640625 0zm23.96875 0.3125q-2.53125 0 -3.59375 -1.234375q-1.0625 -1.234375 -1.125 -3.984375l0 -10.296875l-2.546875 0l0.109375 -1.71875l2.421875 -0.21875l0.890625 -3.921875l1.71875 -0.0625l0 3.984375l4.765625 0l0 1.9375l-4.765625 0l0 9.828125q0 1.953125 0.59375 2.75q0.59375 0.796875 2.03125 0.796875q0.515625 0 2.234375 -0.25l0.109375 2.0625q-1.859375 0.328125 -2.84375 0.328125zm20.265625 -2.546875q1.328125 0 2.328125 -0.46875q1.0 -0.46875 1.5625 -1.296875q0.5625 -0.828125 0.828125 -1.84375q0.28125 -1.015625 0.28125 -2.21875l0 -1.265625q0 -1.25 -0.28125 -2.296875q-0.28125 -1.0625 -0.875 -1.890625q-0.578125 -0.84375 -1.5625 -1.3125q-0.96875 -0.46875 -2.265625 -0.46875q-1.078125 0 -1.96875 0.40625q-0.875 0.40625 -1.453125 1.078125q-0.5625 0.65625 -0.96875 1.546875q-0.390625 0.875 -0.5625 1.78125q-0.171875 0.90625 -0.171875 1.828125q0 0.90625 0.1875 1.796875q0.1875 0.890625 0.59375 1.734375q0.40625 0.84375 0.984375 1.484375q0.578125 0.625 1.4375 1.015625q0.875 0.390625 1.90625 0.390625zm-4.015625 10.078125l-0.234375 -2.359375l3.1875 0q1.328125 0 2.3125 -0.1875q0.984375 -0.1875 1.640625 -0.625q0.65625 -0.421875 1.0625 -0.953125q0.40625 -0.515625 0.609375 -1.359375q0.21875 -0.828125 0.28125 -1.65625q0.078125 -0.8125 0.078125 -2.0l0 -1.515625q-0.9375 1.34375 -2.171875 2.078125q-1.234375 0.71875 -3.140625 0.71875q-1.46875 0 -2.71875 -0.5q-1.234375 -0.515625 -2.09375 -1.359375q-0.84375 -0.84375 -1.453125 -1.953125q-0.59375 -1.109375 -0.875 -2.296875q-0.265625 -1.1875 -0.265625 -2.390625q0 -1.875 0.453125 -3.46875q0.46875 -1.59375 1.375 -2.84375q0.90625 -1.25 2.375 -1.953125q1.484375 -0.71875 3.390625 -0.71875q1.6875 0 2.9375 0.65625q1.265625 0.640625 2.265625 1.984375l0 -2.28125l2.546875 0l0 15.90625q0 1.09375 -0.0625 1.90625q-0.046875 0.828125 -0.265625 1.828125q-0.203125 1.0 -0.5625 1.71875q-0.359375 0.71875 -1.015625 1.4375q-0.640625 0.734375 -1.546875 1.171875q-0.890625 0.453125 -2.21875 0.734375q-1.328125 0.28125 -3.0 0.28125l-2.890625 0zm17.8125 -16.375q0 3.046875 1.34375 4.890625q1.359375 1.828125 3.953125 1.828125q2.5625 0 3.859375 -1.828125q1.3125 -1.828125 1.3125 -4.921875q0 -3.140625 -1.296875 -4.9375q-1.28125 -1.8125 -3.921875 -1.8125q-2.5625 0 -3.90625 1.84375q-1.34375 1.84375 -1.34375 4.9375zm13.171875 -0.046875q0 3.984375 -2.125 6.46875q-2.125 2.46875 -5.875 2.46875q-3.609375 0 -5.75 -2.5q-2.125 -2.5 -2.125 -6.421875q0 -4.0 2.140625 -6.46875q2.140625 -2.46875 5.875 -2.46875q3.671875 0 5.765625 2.484375q2.09375 2.46875 2.09375 6.4375zm8.640625 6.828125q1.859375 0 3.265625 -1.015625q1.421875 -1.03125 1.828125 -2.765625l0 -2.890625q-0.078125 0 -0.953125 0.078125q-0.859375 0.078125 -1.125 0.09375q-3.390625 0.296875 -4.734375 1.109375q-1.328125 0.8125 -1.328125 2.609375q0 1.375 0.8125 2.078125q0.8125 0.703125 2.234375 0.703125zm5.671875 1.75q-0.234375 -1.0 -0.453125 -2.15625q-1.421875 1.421875 -2.671875 1.96875q-1.25 0.546875 -2.9375 0.546875q-2.40625 0 -3.875 -1.25q-1.453125 -1.265625 -1.453125 -3.625q0 -2.625 1.984375 -3.890625q2.0 -1.265625 5.75 -1.578125q0.515625 -0.046875 1.546875 -0.125q1.046875 -0.09375 1.5625 -0.140625l0 -1.515625q0 -1.8125 -0.84375 -2.6875q-0.84375 -0.875 -2.65625 -0.875q-2.53125 0 -5.109375 1.25q-0.078125 -0.1875 -0.40625 -1.078125q-0.328125 -0.90625 -0.34375 -0.9375q1.140625 -0.640625 2.703125 -1.015625q1.578125 -0.390625 3.203125 -0.390625q3.203125 0 4.609375 1.40625q1.421875 1.390625 1.421875 4.75l0 11.34375l-2.03125 0zm11.140625 0.3125q-2.5 0 -3.546875 -1.34375q-1.03125 -1.34375 -1.03125 -4.671875l0 -18.09375l2.59375 -0.15625l0 17.21875q0 1.0625 0.015625 1.703125q0.03125 0.640625 0.125 1.265625q0.09375 0.609375 0.25 0.921875q0.15625 0.3125 0.453125 0.578125q0.296875 0.25 0.703125 0.34375q0.421875 0.078125 1.03125 0.078125q0.5 0 1.96875 -0.1875l0.140625 2.078125q-1.609375 0.265625 -2.703125 0.265625zm9.390625 0.046875q-1.75 0 -3.234375 -0.375q-1.46875 -0.375 -2.390625 -0.96875l0.328125 -2.203125q2.609375 1.390625 5.125 1.390625q3.8125 0 3.921875 -2.6875q0 -1.140625 -0.8125 -1.796875q-0.8125 -0.65625 -3.1875 -1.46875l-1.296875 -0.453125q-2.25 -0.75 -3.21875 -1.859375q-0.953125 -1.109375 -0.96875 -2.765625q0 -2.015625 1.609375 -3.34375q1.625 -1.328125 4.4375 -1.328125q2.90625 0 5.296875 1.125l-0.765625 2.0q-2.421875 -1.0 -4.53125 -1.0q-1.640625 0 -2.578125 0.65625q-0.921875 0.640625 -0.921875 1.8125q0 1.0 0.671875 1.53125q0.671875 0.53125 2.6875 1.21875q0.515625 0.1875 1.296875 0.4375q2.59375 0.84375 3.671875 2.0q1.078125 1.140625 1.078125 3.09375q-0.03125 2.375 -1.703125 3.6875q-1.671875 1.296875 -4.515625 1.296875z" fill-rule="nonzero"/><path fill="#999999" d="m646.77997 134.80048l0 0c0 -7.0448837 5.7110596 -12.7558975 12.75592 -12.7558975l0 0c3.3830566 0 6.6276245 1.3439178 9.019775 3.7361145c2.392212 2.3922043 3.736145 5.636711 3.736145 9.019783l0 0c0 7.0449066 -5.7109985 12.755905 -12.75592 12.755905l0 0c-7.044861 0 -12.75592 -5.7109985 -12.75592 -12.755905z" fill-rule="evenodd"/></g></svg>