<svg version="1.1" viewBox="0.0 0.0 203.75853018372703 181.96325459317586" fill="none" stroke="none" stroke-linecap="square" stroke-miterlimit="10" xmlns:xlink="http://www.w3.org/1999/xlink" xmlns="http://www.w3.org/2000/svg"><clipPath id="p.0"><path d="m0 0l203.75853 0l0 181.96326l-203.75853 0l0 -181.96326z" clip-rule="nonzero"/></clipPath><g clip-path="url(#p.0)"><path fill="#000000" fill-opacity="0.0" d="m0 0l203.75853 0l0 181.96326l-203.75853 0z" fill-rule="evenodd"/><path fill="#e69138" d="m8.079462 49.35612l0 0c0 -22.989132 18.636374 -41.625504 41.625504 -41.625504l0 0c11.039772 0 21.627377 4.385532 29.433674 12.19183c7.8062973 7.8062954 12.1918335 18.393908 12.1918335 29.433676l0 0c0 22.989132 -18.636375 41.625507 -41.625507 41.625507l0 0c-22.989132 0 -41.625504 -18.636375 -41.625504 -41.625507z" fill-rule="evenodd"/><path fill="#93c47d" d="m112.428055 49.35612l0 0c0 -22.989132 18.636383 -41.625504 41.625504 -41.625504l0 0c11.03978 0 21.62738 4.385532 29.433685 12.19183c7.8062897 7.8062954 12.191818 18.393908 12.191818 29.433676l0 0c0 22.989132 -18.636368 41.625507 -41.625504 41.625507l0 0c-22.98912 0 -41.625504 -18.636375 -41.625504 -41.625507z" fill-rule="evenodd"/><path fill="#999999" d="m60.25376 132.60713l0 0c0 -22.989128 18.636375 -41.625504 41.625504 -41.625504l0 0c11.039772 0 21.62738 4.3855286 29.433678 12.191826c7.8062897 7.8062973 12.1918335 18.393906 12.1918335 29.433678l0 0c0 22.989136 -18.636375 41.625504 -41.62551 41.625504l0 0c-22.989128 0 -41.625504 -18.636368 -41.625504 -41.625504z" fill-rule="evenodd"/></g></svg>