<svg version="1.1" viewBox="0.0 0.0 96.0 96.0" fill="none" stroke="none" stroke-linecap="square" stroke-miterlimit="10" xmlns:xlink="http://www.w3.org/1999/xlink" xmlns="http://www.w3.org/2000/svg"><clipPath id="p.0"><path d="m0 0l96.0 0l0 96.0l-96.0 0l0 -96.0z" clip-rule="nonzero"/></clipPath><g clip-path="url(#p.0)"><path fill="#000000" fill-opacity="0.0" d="m0 0l96.0 0l0 96.0l-96.0 0z" fill-rule="evenodd"/><path fill="#666666" d="m48.000324 30.427736c10.173317 0 18.409634 7.5989895 18.409634 17.572264c0 9.972633 -8.236317 18.046478 -18.409634 18.046478c-10.173965 0 -17.925873 -8.073845 -17.925873 -18.046478c0 -9.973274 7.7519073 -17.572264 17.925873 -17.572264zm-9.689552 -29.919184c-0.9688263 0 -1.9376526 0.9497139 -2.4220657 1.8994277l-1.9383011 12.823055c-2.906475 0.94971466 -5.329191 2.849142 -7.751253 4.7492085l-12.11162 -4.7492085c-0.38987732 -0.127182 -0.74454784 -0.1866188 -1.0737915 -0.1866188c-0.899065 0 -1.608407 0.44098377 -2.317748 1.1363335l-9.689556 16.147055c-0.4844126 1.4245682 0 2.3742828 0.9694772 3.3239975l10.173317 7.5989876c-0.48441315 1.424572 -0.48441315 3.3240013 -0.48441315 4.7492104c0 1.424572 0 3.3239975 0.48441315 4.7485695l-10.173317 7.5989914c-0.9694772 0.94971085 -1.4538898 2.3742828 -0.9694772 3.3239975l9.689556 16.147053c0.70934105 0.69535065 1.418683 1.1363373 2.317748 1.1363373c0.32924366 0 0.6839142 -0.058799744 1.0737915 -0.18598175l11.627207 -4.749214c2.906475 1.8994293 5.329191 3.7988586 8.235666 4.749214l1.9383011 12.822411c0.48441315 0.94971466 1.4532394 1.8994293 2.4220657 1.8994293l19.378456 0c1.4538918 0 2.422718 -0.94971466 2.422718 -1.8994293l1.9376488 -12.822411c2.9071312 -0.9503555 5.3291893 -2.8497849 8.236317 -4.749214l11.627205 4.749214c0.38922882 0.127182 0.7438965 0.18598175 1.073143 0.18598175c0.8990631 0 1.6084061 -0.44098663 2.317749 -1.1363373l9.689552 -16.147053c0.48441315 -1.424572 0 -2.3742867 -0.96881866 -3.3239975l-10.173973 -7.5989914c0.48441315 -1.424572 0.48441315 -3.3239975 0.48441315 -4.7485695c0 -1.425209 0 -3.3246384 -0.48441315 -4.7492104l10.173973 -7.5989876c0.96881866 -0.94971466 1.4532318 -1.8994293 0.96881866 -3.3239975l-9.689552 -16.147055c-0.70934296 -0.6953497 -1.4186859 -1.1363335 -2.317749 -1.1363335c-0.32924652 0 -0.6839142 0.059436798 -1.073143 0.1866188l-11.627205 4.7492085c-2.9071274 -1.9000664 -5.3291855 -3.7994938 -8.236317 -4.7492085l-1.9376488 -12.823055c0 -0.9497138 -0.9688263 -1.8994277 -2.422718 -1.8994277z" fill-rule="evenodd"/></g></svg>