<svg version="1.1" viewBox="0.0 0.0 183.08923884514437 100.0" fill="none" stroke="none" stroke-linecap="square" stroke-miterlimit="10" xmlns:xlink="http://www.w3.org/1999/xlink" xmlns="http://www.w3.org/2000/svg"><clipPath id="p.0"><path d="m0 0l183.08923 0l0 100.0l-183.08923 0l0 -100.0z" clip-rule="nonzero"/></clipPath><g clip-path="url(#p.0)"><path fill="#000000" fill-opacity="0.0" d="m0 0l183.08923 0l0 100.0l-183.08923 0z" fill-rule="evenodd"/><path fill="#eeeeee" d="m181.84383 50.0l0 0c0 27.614235 -22.385757 50.0 -50.0 50.0l-80.59842 0l0 0c-13.260826 0 -25.978521 -5.267845 -35.35534 -14.644661c-9.37682 -9.376816 -14.644661 -22.094513 -14.644661 -35.35534l0 0l0 0c0 -27.614237 22.385763 -50.0 50.0 -50.0l80.59842 -1.9097002E-14c27.614243 0 50.0 22.385763 50.0 50.0z" fill-rule="evenodd"/><path fill="#999999" d="m155.59326 49.99785l0 0c0 19.890945 -16.153 36.015747 -36.078735 36.015747l0 0c-9.56868 0 -18.745445 -3.79451 -25.51152 -10.548767c-6.766075 -6.754265 -10.567223 -15.915012 -10.567223 -25.46698l0 0c0 -19.89095 16.153008 -36.01575 36.078743 -36.01575l0 0c19.925735 0 36.078735 16.124802 36.078735 36.01575z" fill-rule="evenodd"/></g></svg>