<svg version="1.1" viewBox="0.0 0.0 183.08923884514437 100.0" fill="none" stroke="none" stroke-linecap="square" stroke-miterlimit="10" xmlns:xlink="http://www.w3.org/1999/xlink" xmlns="http://www.w3.org/2000/svg"><clipPath id="p.0"><path d="m0 0l183.08923 0l0 100.0l-183.08923 0l0 -100.0z" clip-rule="nonzero"/></clipPath><g clip-path="url(#p.0)"><path fill="#000000" fill-opacity="0.0" d="m0 0l183.08923 0l0 100.0l-183.08923 0z" fill-rule="evenodd"/><path fill="#eeeeee" d="m1.2454069 50.0l0 0c0 -27.614237 22.385763 -50.0 50.0 -50.0l80.59842 0l0 0c13.260834 0 25.97853 5.267842 35.355347 14.644661c9.376816 9.37682 14.644653 22.094513 14.644653 35.35534l0 0l0 0c0 27.614235 -22.385757 50.0 -50.0 50.0l-80.59842 0c-27.614237 0 -50.0 -22.385765 -50.0 -50.0z" fill-rule="evenodd"/></g></svg>