<svg version="1.1" viewBox="0.0 0.0 96.0 96.0" fill="none" stroke="none" stroke-linecap="square" stroke-miterlimit="10" xmlns:xlink="http://www.w3.org/1999/xlink" xmlns="http://www.w3.org/2000/svg"><clipPath id="p.0"><path d="m0 0l96.0 0l0 96.0l-96.0 0l0 -96.0z" clip-rule="nonzero"/></clipPath><g clip-path="url(#p.0)"><path fill="#000000" fill-opacity="0.0" d="m0 0l96.0 0l0 96.0l-96.0 0z" fill-rule="evenodd"/><path fill="#666666" d="m0.8346457 48.0l0 0c0 -26.048706 21.116648 -47.165356 47.165356 -47.165356l0 0c12.509029 0 24.505722 4.9691925 33.350945 13.814413c8.845215 8.84522 13.814407 20.841911 13.814407 33.35094l0 0c0 26.048706 -21.116646 47.16535 -47.16535 47.16535l0 0c-26.048706 0 -47.165356 -21.116646 -47.165356 -47.16535z" fill-rule="evenodd"/><path fill="#ffffff" d="m59.04192 77.868744q0 2.03125 -0.90625 4.0625q-0.90625 2.015625 -2.625 3.5625q-1.703125 1.546875 -4.265625 2.453125q-2.546875 0.90625 -5.859379 0.90625q-2.234375 0 -4.046875 -0.859375q-1.8125 -0.84375 -2.9375 -2.28125q-1.125 -1.453125 -1.765625 -3.265625q-0.640625 -1.8125 -0.640625 -3.625q0 -2.015625 0.640625 -3.875q0.640625 -1.875 1.96875 -3.3125q1.34375 -1.453125 3.3125 -2.40625q1.984375 -0.953125 4.750004 -0.953125q6.1875 0 9.28125 2.9375q3.09375 2.921875 3.09375 6.65625z" fill-rule="nonzero"/></g></svg>