<svg version="1.1" viewBox="0.0 0.0 96.0 96.0" fill="none" stroke="none" stroke-linecap="square" stroke-miterlimit="10" xmlns:xlink="http://www.w3.org/1999/xlink" xmlns="http://www.w3.org/2000/svg"><clipPath id="p.0"><path d="m0 0l96.0 0l0 96.0l-96.0 0l0 -96.0z" clip-rule="nonzero"/></clipPath><g clip-path="url(#p.0)"><path fill="#000000" fill-opacity="0.0" d="m0 0l96.0 0l0 96.0l-96.0 0z" fill-rule="evenodd"/><path fill="#b45f06" d="m0.8346457 48.0l0 0c0 -26.048706 21.116648 -47.165356 47.165356 -47.165356l0 0c12.509029 0 24.505722 4.9691925 33.350945 13.814413c8.845215 8.84522 13.814407 20.841911 13.814407 33.35094l0 0c0 26.048706 -21.116646 47.16535 -47.16535 47.16535l0 0c-26.048706 0 -47.165356 -21.116646 -47.165356 -47.16535z" fill-rule="evenodd"/><path fill="#ffffff" d="m71.51963 81.493744q-0.21875 0.109375 -1.5 0.4375q-1.28125 0.3125 -3.203125 0.84375q-1.90625 0.53125 -4.203121 1.171875q-2.296875 0.640625 -4.484375 1.28125q-2.1875 0.640625 -4.109375 1.21875q-1.90625 0.59375 -2.984375 1.015625q-0.3125 -4.265625 -0.53125 -8.3125q-0.203125 -3.515625 -0.484375 -7.03125q-0.265625 -3.53125 -0.359375 -5.875q-0.96875 2.34375 -2.515625 5.875q-1.5468788 3.515625 -3.0312538 6.921875q-1.8125 3.953125 -3.734375 8.0l-18.140625 -1.59375q5.34375 -9.5 10.671875 -18.78125q5.328125 -9.281246 9.8125 -19.406246q-0.640625 -4.796875 -1.234375 -8.53125q-0.578125 -3.734375 -1.328125 -7.359377q-0.75 -3.625 -1.609375 -7.296875q-0.84375 -3.6875 -1.703125 -8.390624l17.078129 -7.03125q0.53125 5.015625 1.21875 11.093749q0.6875 6.078125 1.234375 11.1875q2.453125 -5.328125 4.84375 -10.65625q2.40625 -5.328124 4.968746 -10.562499l15.453125 4.15625q-2.765625 4.703124 -5.015625 8.656249q-2.234375 3.9375 -4.265625 7.890625q-2.015625 3.937502 -4.046875 8.046877q-2.03125 4.109375 -4.374996 9.109375q0.6406212 4.703125 1.4843712 8.859375q0.859375 4.15625 1.875 8.218746q1.015625 4.046875 2.03125 8.15625q1.015625 4.09375 2.1875 8.6875z" fill-rule="nonzero"/></g></svg>