<svg version="1.1" viewBox="0.0 0.0 192.0 192.0" fill="none" stroke="none" stroke-linecap="square" stroke-miterlimit="10" xmlns:xlink="http://www.w3.org/1999/xlink" xmlns="http://www.w3.org/2000/svg"><clipPath id="p.0"><path d="m0 0l192.0 0l0 192.0l-192.0 0l0 -192.0z" clip-rule="nonzero"/></clipPath><g clip-path="url(#p.0)"><path fill="#000000" fill-opacity="0.0" d="m0 0l192.0 0l0 192.0l-192.0 0z" fill-rule="evenodd"/><path fill="#cc4125" d="m1.3700787 96.0l0 0c0 -52.26266 42.36726 -94.62992 94.62992 -94.62992l0 0c25.097412 0 49.1669 9.96991 66.91345 27.716461c17.746567 17.746555 27.716476 41.816048 27.716476 66.91346l0 0c0 52.262665 -42.367264 94.62993 -94.62993 94.62993l0 0c-52.26266 0 -94.62992 -42.367264 -94.62992 -94.62993z" fill-rule="evenodd"/><path fill="#fefdf8" d="m27.787884 82.60025c-0.5931587 0 -1.3399029 0.081344604 -2.2190495 0.20363617c-0.8791466 0.122291565 -1.7794781 0.36686707 -2.7463036 0.73373413c-0.9668255 0.36686707 -1.9554234 0.83582306 -2.9446106 1.46801c-0.9885998 0.6523895 -1.9112911 1.4674606 -2.7904377 2.4867172c-0.8567848 1.0192566 -1.6258907 2.2421417 -2.3067293 3.6692047c-0.681427 1.4270706 -1.1863184 3.0981674 -1.515851 5.034584c-0.11003971 0.59124756 -0.17594719 1.1415482 -0.22008038 1.6923904c-0.04413414 0.5295563 -0.08767986 1.0394516 -0.08767986 1.5695572c0 1.6918411 0.26362705 3.1391068 0.7467451 4.382187c0.46134567 1.2638321 1.164546 2.303833 1.9995584 3.1391144c0.8567848 0.8156204 1.8677444 1.4472656 3.0322895 1.855072c1.1421852 0.40781403 2.3949986 0.61144257 3.7349014 0.61144257c0.81324005 0 1.6482525 -0.061141968 2.3949986 -0.22383118c0.7691059 -0.14303589 1.5382118 -0.3876114 2.3508625 -0.7135315l1.6482525 -7.2570724l0 0c-0.7031994 0.53009796 -1.4063988 0.937912 -2.0213299 1.2234344c-0.63729286 0.28497314 -1.3846264 0.42800903 -2.2631855 0.42800903c-0.7473335 0 -1.3404922 -0.14303589 -1.8459721 -0.4078064c-0.48311806 -0.24458313 -0.8785572 -0.6114502 -1.1421833 -1.0602036c-0.28598785 -0.44821167 -0.5054798 -0.958107 -0.6155205 -1.5286102c-0.13181305 -0.5704956 -0.17535782 -1.1824875 -0.17535782 -1.79393c0 -0.38706207 0.021772385 -0.7135315 0.04354477 -1.0596542c0.065906525 -0.36686707 0.08826828 -0.69332886 0.13181305 -1.0601959c0.110040665 -0.7135315 0.32953262 -1.4472656 0.6155205 -2.2623444c0.2636261 -0.8156204 0.65906525 -1.5493546 1.1421833 -2.2426834c0.5054798 -0.6927872 1.0768661 -1.2430878 1.8018379 -1.7120438c0.7032013 -0.42800903 1.5599861 -0.6523895 2.548584 -0.6523895c0.79146767 0 1.4063988 0.14248657 1.8677444 0.40781403c0.46134567 0.2445755 0.92269325 0.6316376 1.4063988 1.1207962l1.2304535 -7.4399567c-0.57138634 -0.2243805 -1.1869068 -0.3870697 -1.8236122 -0.48915863c-0.6596527 -0.08188629 -1.3187199 -0.122291565 -1.9777851 -0.122291565z" fill-rule="evenodd"/><path fill="#fefdf8" d="m42.948746 89.14324c0.41721344 0 0.76852036 0.10209656 1.0545044 0.32646942c0.2636299 0.20363617 0.48311996 0.48915863 0.65906906 0.8560257c0.15358353 0.34666443 0.2636261 0.7337265 0.32953262 1.1617432c0.044132233 0.42800903 0.087677 0.896965 0.087677 1.3457184c0 0.6518402 -0.065906525 1.2638321 -0.15358353 1.8343277c-0.065906525 0.59124756 -0.13181305 1.0192566 -0.1759491 1.365921c-0.04354477 0.26477814 -0.109451294 0.6316452 -0.19771957 1.0803986c-0.087677 0.4684143 -0.21949005 0.91716766 -0.3513031 1.4265213c-0.1759491 0.50990295 -0.32953644 1.0192566 -0.54961395 1.5291595c-0.21949387 0.50935364 -0.48311996 0.97830963 -0.74674606 1.4063187c-0.2854004 0.42800903 -0.6155205 0.7948761 -0.98859787 1.0394516c-0.39543915 0.28552246 -0.83501434 0.40781403 -1.29636 0.40781403c-0.43957138 0 -0.769104 -0.10208893 -1.0327301 -0.3259201c-0.28598785 -0.20417786 -0.5054817 -0.48915863 -0.65906906 -0.83582306c-0.17594528 -0.36686707 -0.28598404 -0.75447845 -0.32953262 -1.2026901c-0.065906525 -0.42800903 -0.088264465 -0.896965 -0.088264465 -1.3451767c0 -0.67313385 0.02235794 -1.2638321 0.11003876 -1.834877c0.08768082 -0.5912399 0.13181305 -1.019249 0.19771957 -1.3451767c0.044132233 -0.28552246 0.11003876 -0.6523819 0.17594528 -1.0803986c0.10945511 -0.44875336 0.21949387 -0.91716003 0.39544296 -1.427063c0.15358353 -0.50935364 0.32953262 -1.0192566 0.5490227 -1.5286102c0.22008133 -0.5098953 0.46134567 -0.958107 0.7473335 -1.406868c0.2636261 -0.42800903 0.5931587 -0.7741318 0.98859787 -1.0394516c0.37366867 -0.28552246 0.8126526 -0.40781403 1.2745857 -0.40781403zm1.098053 -6.5429916c-1.911293 0 -3.6248627 0.36686707 -5.097168 1.1819458c-1.4940796 0.8156204 -2.7686653 1.875824 -3.8449402 3.139656c-1.0986404 1.3042297 -1.9554253 2.7312927 -2.6144905 4.3417892c-0.6596546 1.6099548 -1.1210003 3.179512 -1.4063988 4.769806c-0.065906525 0.5301056 -0.15358734 1.0596542 -0.19771957 1.5897598c-0.021774292 0.55029297 -0.04413414 1.0803986 -0.04413414 1.6104965c0 1.3451767 0.1541729 2.6292038 0.46134567 3.8526382c0.30776024 1.2430878 0.7908802 2.3234863 1.4940777 3.2613983c0.681427 0.91716766 1.5599861 1.6716385 2.6586227 2.2421417c1.0986404 0.5503006 2.4391327 0.83582306 4.0650253 0.83582306c1.9112892 0 3.6254463 -0.3870697 5.097164 -1.2026901c1.4940796 -0.81507874 2.7904358 -1.8550797 3.844944 -3.1189117c1.0986366 -1.3042297 1.9560127 -2.7312927 2.615078 -4.3417892c0.65906525 -1.5897522 1.1204109 -3.1800537 1.4058075 -4.769806c0.08826828 -0.50935364 0.1541748 -1.0394592 0.22008133 -1.6105042c0.04354477 -0.55029297 0.08768082 -1.0803986 0.08768082 -1.6508942c0 -1.2840347 -0.1759491 -2.5686111 -0.48311996 -3.7914963c-0.32953262 -1.2436295 -0.81324005 -2.324028 -1.4940758 -3.2613983c-0.7249756 -0.91716003 -1.6041183 -1.6918411 -2.724533 -2.2421417c-1.0986366 -0.5710449 -2.4391289 -0.83582306 -4.043247 -0.83582306z" fill-rule="evenodd"/><path fill="#fefdf8" d="m53.67092 83.04846l2.0872383 25.949226l7.712242 0l11.952625 -25.949226l-8.21772 0l-3.844944 10.681702c-0.37366867 1.0798569 -0.7032013 2.0991058 -0.98859787 3.1391068c-0.2636261 1.0394592 -0.57138824 2.0789108 -0.9232826 3.1183624l-0.087677 0c0.021770477 -1.0394516 0.087677 -2.0789032 0.13181305 -3.1183624c0.065906525 -1.0400009 0.087677 -2.0996552 0.11003876 -3.1391068l0 -10.681702z" fill-rule="evenodd"/><path fill="#fefdf8" d="m76.45517 83.04846l-4.306282 25.929031l14.062218 0l0.9886017 -6.115532l-6.4817963 0l0.6590729 -3.9547272l5.8227234 0l1.0545044 -6.1149826l-5.822136 0l0.6149292 -3.6282578l6.4817963 0l0.98859406 -6.115532z" fill-rule="evenodd"/><path fill="#fefdf8" d="m99.28415 88.59295c0.87914276 0 1.5599823 0.20417786 2.0654602 0.5710449c0.5272522 0.4078064 0.769104 1.019249 0.769104 1.8343277c0 0.14303589 -0.022361755 0.26531982 -0.022361755 0.36686707c0 0.122291565 -0.043540955 0.2445755 -0.06590271 0.3876114c-0.087677 0.38706207 -0.21949005 0.81507874 -0.41721344 1.2228851c-0.22007751 0.40781403 -0.46134186 0.75447845 -0.769104 1.0602036c-0.2854004 0.30571747 -0.68083954 0.5704956 -1.0986404 0.7337265c-0.39543915 0.18343353 -0.8785553 0.28552246 -1.3622665 0.28552246l-0.46134186 -0.08188629l1.0545044 -6.3803024zm-6.943138 -5.544487l-4.3722 25.949226l7.5798416 0l1.1427765 -6.9104004c0.15358734 -0.6316452 0.21949005 -1.2638321 0.30776215 -1.9162216c0.087677 -0.6316452 0.13181305 -1.2638321 0.21949005 -1.8954773l0.11003876 -0.081336975l2.372635 10.803436l8.217728 -0.020195007l-3.823166 -10.803993c1.625885 -0.55029297 2.8563385 -1.4063187 3.735489 -2.5888062c0.856781 -1.1617432 1.4281693 -2.4665222 1.6694336 -3.9137878c0.06591034 -0.36685944 0.11003876 -0.7129822 0.13181305 -1.0596466c0.044136047 -0.32646942 0.06591034 -0.6321945 0.06591034 -0.9581146c0 -1.304779 -0.24126434 -2.3851776 -0.7467499 -3.2411957c-0.4837036 -0.83582306 -1.2086792 -1.5286102 -2.0872345 -2.0177612c-0.8791504 -0.468956 -1.9554214 -0.83582306 -3.185875 -1.0400009c-1.2304535 -0.20363617 -2.5709457 -0.3057251 -4.043251 -0.3057251z" fill-rule="evenodd"/><path fill="#fefdf8" d="m122.683914 89.24534c-0.021766663 0.8156204 -0.087677 1.6306915 -0.13181305 2.4463196c-0.06590271 0.8358154 -0.087677 1.6306915 -0.109451294 2.4457703l-0.19771576 6.013443l-3.1864624 0l2.0219193 -6.013443c0.28539276 -0.81507874 0.5272522 -1.6306992 0.7908783 -2.4457703c0.24126434 -0.83582306 0.48311615 -1.6306992 0.72496796 -2.4463196zm-3.4936295 -6.1968765l-11.02935 25.949226l7.7999268 0l1.1863174 -3.3432846l5.0753937 0l0 3.3432846l7.799919 0l-1.6035309 -25.949226z" fill-rule="evenodd"/><path fill="#fefdf8" d="m135.73518 83.04846l-4.350418 25.949226l13.271347 0l0.9885864 -6.1155243l-5.6909027 0l3.3618164 -19.833702z" fill-rule="evenodd"/><path fill="#fefdf8" d="m150.4347 83.04846l-4.350418 25.949226l13.270767 0l0.9885864 -6.1155243l-5.6909027 0l3.3618164 -19.833702z" fill-rule="evenodd"/><path fill="#fefdf8" d="m173.90038 82.53911c-1.5823364 0 -2.9881592 0.3057251 -4.1968384 0.91716766c-1.1863098 0.61144257 -2.1972656 1.3451767 -2.9881592 2.221939c-0.7908783 0.8560257 -1.4281616 1.7731857 -1.8677368 2.7722397c-0.4389801 0.99851227 -0.7467499 1.8550797 -0.856781 2.629753c-0.087677 0.48915863 -0.109451294 0.9373703 -0.109451294 1.3451767c0 0.6316452 0.087677 1.2026901 0.21948242 1.7327881c0.13182068 0.5295563 0.3513031 1.0192566 0.6372986 1.4876633c0.3736725 0.6321945 0.8350067 1.1824875 1.3840332 1.7327881c0.5931549 0.5301056 1.1863251 1.0394592 1.8236084 1.5695572c0.22009277 0.1632309 0.4178009 0.34666443 0.6155243 0.489151c0.175354 0.14303589 0.3295288 0.32646942 0.4613495 0.50990295c0.2636261 0.3259201 0.4172058 0.6927872 0.4172058 1.0596542c0 0.1632309 0 0.28552246 -0.044128418 0.3876114c-0.06590271 0.5912399 -0.39544678 1.0192566 -0.922699 1.3042297c-0.5272522 0.28552246 -1.0545044 0.42800903 -1.5599823 0.42800903c-0.5054779 0 -0.9668274 -0.081344604 -1.3840332 -0.22383118c-0.4172058 -0.18343353 -0.7908783 -0.3876114 -1.1863251 -0.67258453c-0.35188293 -0.24458313 -0.681427 -0.5508499 -0.9891815 -0.896965c-0.2854004 -0.36686707 -0.5490265 -0.7135391 -0.7249756 -1.0803986l-1.5158539 8.051399c1.7135773 0.7135315 3.559555 1.0803986 5.4931946 1.0803986c1.3181305 0 2.548584 -0.20363617 3.734909 -0.67259216c1.1863098 -0.44820404 2.2190552 -1.0596466 3.1199646 -1.855072c0.9450531 -0.7948761 1.691803 -1.7120438 2.3073273 -2.7514954c0.6367035 -1.0400009 1.0545044 -2.160797 1.2522125 -3.3836899c0.06591797 -0.5508423 0.13182068 -1.0601959 0.13182068 -1.5902939c0 -0.61144257 -0.06590271 -1.1415482 -0.19772339 -1.6104965c-0.13180542 -0.44821167 -0.3295288 -0.91716766 -0.5713806 -1.3249817c-0.3295288 -0.5704956 -0.769104 -1.1409988 -1.2963562 -1.6306992c-0.5272522 -0.46840668 -1.1645508 -0.97830963 -1.8677521 -1.5286026c-0.19772339 -0.18343353 -0.39543152 -0.32592773 -0.6149292 -0.50936127c-0.21949768 -0.14302826 -0.39544678 -0.34666443 -0.5713806 -0.5508423c-0.35131836 -0.38706207 -0.5272522 -0.7948761 -0.5272522 -1.2638321l0 -0.18343353c0.11003113 -0.50935364 0.39543152 -0.8964157 0.856781 -1.1819382c0.4613495 -0.28552246 0.9450531 -0.40781403 1.3840332 -0.40781403c0.46194458 0 0.8791504 0.081344604 1.2745819 0.2445755c0.4178009 0.18343353 0.7908783 0.40781403 1.1427765 0.67259216c0.3513031 0.2445755 0.6590729 0.5710449 0.922699 0.896965c0.2854004 0.3264618 0.5054779 0.6321869 0.6590576 0.958107l1.3404999 -7.868515c-0.7249756 -0.38706207 -1.5599823 -0.7129822 -2.460907 -0.9373627c-0.9009247 -0.2445755 -1.8236084 -0.36686707 -2.724533 -0.36686707z" fill-rule="evenodd"/></g></svg>